<svg width="24" height="26" viewBox="0 0 24 26" fill="none" xmlns="http://www.w3.org/2000/svg">
<mask id="mask0_2001_69" style="mask-type:alpha" maskUnits="userSpaceOnUse" x="0" y="1" width="24" height="25">
<path d="M24 1.00586H0V25.0059H24V1.00586Z" fill="#D9D9D9"/>
</mask>
<g mask="url(#mask0_2001_69)">
<path d="M16 12.0059C16.2833 12.0059 16.5208 11.91 16.7125 11.7184C16.9042 11.5267 17 11.2892 17 11.0059C17 10.7225 16.9042 10.485 16.7125 10.2934C16.5208 10.1017 16.2833 10.0059 16 10.0059C15.7167 10.0059 15.4792 10.1017 15.2875 10.2934C15.0958 10.485 15 10.7225 15 11.0059C15 11.2892 15.0958 11.5267 15.2875 11.7184C15.4792 11.91 15.7167 12.0059 16 12.0059ZM8 10.0059H13V8.00586H8V10.0059ZM4.5 22.0059C3.93333 20.1059 3.375 18.21 2.825 16.3184C2.275 14.4267 2 12.4892 2 10.5059C2 8.97253 2.53333 7.67253 3.6 6.60586C4.66667 5.53919 5.96667 5.00586 7.5 5.00586H12.5C12.9833 4.37253 13.5708 3.88086 14.2625 3.53086C14.9542 3.18086 15.7 3.00586 16.5 3.00586C16.9167 3.00586 17.2708 3.15169 17.5625 3.44336C17.8542 3.73503 18 4.08919 18 4.50586C18 4.60586 17.9875 4.70586 17.9625 4.80586C17.9375 4.90586 17.9083 4.99753 17.875 5.08086C17.8083 5.26419 17.7458 5.45169 17.6875 5.64336C17.6292 5.83503 17.5833 6.03086 17.55 6.23086L19.825 8.50586H22V15.4809L19.175 16.4059L17.5 22.0059H12V20.0059H10V22.0059H4.5ZM6 20.0059H8V18.0059H14V20.0059H16L17.55 14.8559L20 14.0309V10.5059H19L15.5 7.00586C15.5 6.67253 15.5208 6.35169 15.5625 6.04336C15.6042 5.73503 15.6667 5.42253 15.75 5.10586C15.2667 5.23919 14.8417 5.46836 14.475 5.79336C14.1083 6.11836 13.8417 6.52253 13.675 7.00586H7.5C6.53333 7.00586 5.70833 7.34753 5.025 8.03086C4.34167 8.71419 4 9.53919 4 10.5059C4 12.1392 4.225 13.735 4.675 15.2934C5.125 16.8517 5.56667 18.4225 6 20.0059Z" fill="#50C3C7"/>
</g>
</svg>
