<svg width="242" height="82" viewBox="0 0 242 82" fill="none" xmlns="http://www.w3.org/2000/svg">
<path d="M1.524 52.448C1.488 52.448 1.452 52.484 1.416 52.484C0.984 52.484 0.408 51.872 0.408 51.548C0.408 51.476 0.444 51.404 0.516 51.368C0.552 51.368 3.864 50.396 8.364 49.46C11.496 43.88 15.348 37.436 18.048 34.376C15.996 35.276 13.8 36.32 13.764 36.32C13.728 36.32 13.692 36.356 13.62 36.356C13.224 36.356 12.612 35.744 12.612 35.42C12.612 35.348 12.648 35.312 12.72 35.276C12.72 35.276 19.704 32 20.712 32C21.108 32 21.828 32.468 21.828 32.9C21.828 33.008 21.792 33.116 21.72 33.188C21.54 33.368 21.216 33.62 20.676 33.98C18.336 35.528 14.088 42.404 10.524 48.704C14.988 42.62 20.424 35.816 23.484 34.16C23.952 33.908 24.384 33.8 24.78 33.8C25.968 33.8 26.832 34.736 27.12 36.068C27.192 36.464 27.228 36.86 27.228 37.328C27.228 40.028 25.932 44.096 24.564 47.948C26.076 48.092 26.904 48.776 26.904 49.064C26.904 49.172 26.832 49.208 26.688 49.208C26.652 49.208 26.616 49.208 26.544 49.208C25.824 49.1 25.032 48.992 24.204 48.956C23.7 50.432 21.324 56.372 21.324 57.956C21.324 58.028 21.324 58.064 21.324 58.1C21.324 58.244 21.144 58.316 20.964 58.316C20.604 58.316 20.1 58.028 20.1 57.056C20.1 56.732 20.172 56.336 20.28 55.832C20.712 54.176 21.828 51.224 22.692 48.92C22.656 48.92 22.62 48.92 22.548 48.92C18.984 48.92 14.916 49.46 11.316 50.144C7.428 55.508 4.296 60.188 4.296 60.224C4.224 60.296 4.188 60.296 4.08 60.296C3.72 60.296 3.036 59.756 3.036 59.432C3.036 59.36 3.072 59.324 3.072 59.288C3.144 59.144 5.016 55.472 7.536 50.936C4.008 51.728 1.56 52.448 1.524 52.448ZM12.396 48.704C15.492 48.2 18.804 47.84 21.792 47.84C22.224 47.84 22.656 47.84 23.052 47.84C23.592 46.364 26.004 39.704 26.004 36.428C26.004 35.636 25.86 35.024 25.536 34.736C25.5 34.7 25.428 34.664 25.32 34.664C23.376 34.664 13.224 47.588 12.396 48.704ZM35.3837 48.632C35.4557 48.56 35.4917 48.56 35.5637 48.56C35.9237 48.56 36.4997 49.136 36.4997 49.496C36.4997 49.568 36.4997 49.604 36.4637 49.64C34.4477 51.116 28.9757 58.352 27.7517 58.424C27.7157 58.424 27.6797 58.424 27.6437 58.424C26.5997 58.424 26.1317 57.704 26.1317 56.516C26.1317 53.24 30.2357 43.268 32.4677 37.904C33.1157 36.32 33.5837 35.132 33.7637 34.628C33.7997 34.556 33.8717 34.52 33.9797 34.52C34.3397 34.52 35.0237 35.024 35.0237 35.384C35.0237 35.924 34.3397 37.22 33.6917 38.768C31.4957 44.096 27.4277 53.924 27.3917 57.128C29.5157 55.688 32.8637 51.044 35.3837 48.632ZM36.5084 46.184C36.5444 46.112 36.6164 46.076 36.7244 46.076C37.0844 46.076 37.7684 46.616 37.7684 46.976C37.7684 47.012 37.7684 47.048 37.7324 47.084C37.2644 48.092 36.0404 50.864 36.0404 52.376C36.0404 52.592 36.0404 52.772 36.0764 52.916C36.1124 52.916 36.1124 52.916 36.1484 52.916C37.8044 52.916 40.7924 49.712 41.7284 48.56C41.7644 48.524 41.8364 48.488 41.8724 48.488C42.1604 48.488 42.6644 49.136 42.6644 49.496C42.6644 49.568 42.6644 49.64 42.6284 49.676C41.5484 51.008 38.8844 53.996 36.8684 53.996C36.7244 53.996 36.5444 53.96 36.4004 53.924C35.8604 53.78 35.3564 53.384 35.1044 52.916C34.8884 52.592 34.8164 52.16 34.8164 51.656C34.8164 49.856 35.9684 47.372 36.5084 46.184ZM38.4884 45.392C38.4524 45.464 38.3804 45.5 38.2724 45.5C37.9124 45.5 37.2284 44.96 37.2284 44.6C37.2284 44.564 37.2644 44.528 37.2644 44.492L38.7404 42.152C38.7764 42.08 38.8484 42.044 38.9564 42.044C39.3164 42.044 40.0004 42.584 40.0004 42.944C40.0004 42.98 39.9644 43.016 39.9644 43.052L38.4884 45.392ZM43.7048 44.636C43.7768 44.6 43.8128 44.564 43.8848 44.564C44.2808 44.564 44.8928 45.176 44.8928 45.5C44.8928 45.572 44.8928 45.608 44.8208 45.644C43.3447 46.508 42.6608 47.228 42.6608 48.2C42.6608 48.776 42.8768 49.46 43.3088 50.288C44.7848 49.64 46.5848 49.028 48.5648 48.596C48.6008 48.56 48.6368 48.56 48.6728 48.56C49.1048 48.56 49.7168 49.172 49.7168 49.496C49.7168 49.568 49.6448 49.64 49.5368 49.676C47.3408 50.18 45.3968 50.828 43.8488 51.548C43.9208 51.728 43.9208 51.944 43.9208 52.124C43.9208 52.916 43.4168 53.708 41.7248 54.464C41.2928 54.644 40.9327 54.788 40.5727 54.788C40.1407 54.788 39.7808 54.572 39.3847 53.924C39.3127 53.744 39.2767 53.6 39.2767 53.456C39.2407 52.268 41.6528 51.08 42.4808 50.648C41.9048 49.532 41.3288 48.524 41.3288 47.588C41.3288 46.616 41.9048 45.68 43.7048 44.636ZM41.1848 53.168C41.6888 52.916 42.0128 52.664 42.2648 52.412C41.8688 52.628 41.5088 52.88 41.1848 53.168ZM50.7008 44.636C50.7728 44.6 50.8088 44.564 50.8808 44.564C51.2768 44.564 51.8888 45.176 51.8888 45.5C51.8888 45.572 51.8888 45.608 51.8168 45.644C50.3408 46.508 49.6568 47.228 49.6568 48.2C49.6568 48.776 49.8728 49.46 50.3048 50.288C51.7808 49.64 53.5808 49.028 55.5608 48.596C55.5968 48.56 55.6328 48.56 55.6688 48.56C56.1008 48.56 56.7128 49.172 56.7128 49.496C56.7128 49.568 56.6408 49.64 56.5328 49.676C54.3368 50.18 52.3928 50.828 50.8448 51.548C50.9168 51.728 50.9168 51.944 50.9168 52.124C50.9168 52.916 50.4128 53.708 48.7208 54.464C48.2888 54.644 47.9288 54.788 47.5688 54.788C47.1368 54.788 46.7768 54.572 46.3808 53.924C46.3088 53.744 46.2728 53.6 46.2728 53.456C46.2368 52.268 48.6488 51.08 49.4768 50.648C48.9008 49.532 48.3248 48.524 48.3248 47.588C48.3248 46.616 48.9008 45.68 50.7008 44.636ZM48.1808 53.168C48.6848 52.916 49.0088 52.664 49.2608 52.412C48.8648 52.628 48.5048 52.88 48.1808 53.168ZM56.5809 47.768C56.6529 47.696 56.7609 47.696 56.8689 47.732C56.6529 47.48 56.5449 47.228 56.5449 47.012C56.5449 46.616 56.9049 46.328 57.6249 46.328C57.7689 46.328 57.9489 46.328 58.1289 46.364C59.1009 46.508 59.7129 47.156 60.0729 47.768C60.9009 47.552 61.7649 47.192 62.5209 46.904C63.2409 46.58 63.8529 46.364 64.3569 46.364C64.5729 46.364 64.7529 46.4 64.9329 46.472C65.1489 46.616 65.6529 47.048 65.6529 47.372C65.6529 47.408 65.6529 47.444 65.6169 47.48C65.6169 47.516 64.8609 48.956 63.9609 50.72C65.6889 49.064 67.7409 47.12 68.8209 46.832C68.9649 46.796 69.1089 46.796 69.2169 46.796C69.7569 46.796 70.2609 47.048 70.6209 47.48C70.9809 47.876 71.0529 48.56 71.0529 49.28C71.0529 50.324 70.8729 51.368 70.8729 51.764C70.8729 51.836 70.8729 51.872 70.8729 51.908C70.9089 51.908 70.9449 51.908 70.9449 51.908C71.5929 51.908 75.5889 48.92 75.9129 48.632C75.9849 48.596 76.0209 48.596 76.0929 48.596C76.4529 48.596 77.0289 49.136 77.0289 49.46C77.0289 49.532 76.9929 49.604 76.9569 49.64C75.8769 50.504 73.3929 52.808 71.5569 52.808C71.1609 52.808 70.8009 52.7 70.5129 52.484C69.8289 51.98 69.6849 51.224 69.6849 50.396C69.6849 49.64 69.8289 48.812 69.8289 48.092C69.8289 48.056 69.8289 47.984 69.8289 47.912C67.9209 48.416 62.9889 54.248 62.1609 54.248C61.4769 54.248 61.1169 53.888 61.1169 53.312C61.1169 52.952 62.7369 49.784 63.7449 47.876C62.7729 48.308 61.5129 48.776 60.4689 48.956C60.4689 49.064 60.4689 49.136 60.4689 49.208C60.4689 50.9 59.1009 52.736 57.6969 53.528C57.1929 53.816 56.6529 53.924 56.1489 53.924C54.8169 53.924 53.6649 53.096 53.6649 51.8C53.6649 50.72 54.4209 49.316 56.5809 47.768ZM54.7449 52.304C54.7449 52.448 54.7809 52.592 54.8529 52.7C54.9609 52.916 55.1409 52.988 55.3929 52.988C56.5449 52.988 58.8489 50.612 59.1729 49.1C58.8129 49.064 57.8049 48.74 57.6969 48.74C56.9769 48.74 54.7449 51.512 54.7449 52.304ZM59.1009 47.948C58.8849 47.408 58.5609 47.228 58.3089 47.228C58.0209 47.228 57.8049 47.408 57.8049 47.588C57.8049 47.768 58.0569 47.984 58.6689 47.984C58.8129 47.984 58.9569 47.948 59.1009 47.948ZM80.1103 40.712C80.3263 40.928 80.4343 41.108 80.4343 41.252C80.4343 41.36 80.3623 41.432 80.1823 41.432C80.0023 41.432 79.6783 41.288 79.3183 40.928C78.9223 40.496 78.7423 40.1 78.7423 39.704C78.7423 39.344 78.8863 39.02 79.2463 38.66C82.0543 36.068 96.7063 34.052 105.382 34.052C107.974 34.052 110.026 34.232 111.07 34.628C111.394 34.736 111.754 35.06 111.826 35.348C111.934 35.636 111.754 35.744 111.394 35.636C110.458 35.276 108.622 35.132 106.282 35.132C97.8943 35.132 83.0983 37.148 80.3983 39.668C80.1823 39.848 79.9663 40.136 79.9663 40.388C79.9663 40.496 80.0383 40.604 80.1103 40.712ZM95.3023 38.336C95.4823 38.66 95.3383 38.84 95.0143 38.732C94.4023 39.344 93.0343 42.944 91.4503 47.192C94.1863 46.796 97.1383 46.472 99.0103 46.472C99.8023 46.472 100.414 46.544 100.738 46.652C101.422 46.904 101.782 47.228 101.782 47.624C101.782 47.696 101.782 47.768 101.746 47.876C101.71 47.948 101.638 47.984 101.53 47.984C101.278 47.984 100.882 47.696 100.738 47.588C100.378 47.516 99.9463 47.48 99.4783 47.48C96.9583 47.48 93.1783 48.164 90.9823 48.524C90.1903 50.72 89.3983 52.916 88.5703 55.112C88.4263 55.796 88.2463 56.48 88.0663 57.128C87.4183 59.108 86.5543 60.908 86.3023 61.052C86.2303 61.052 86.1583 61.088 86.0863 61.088C85.6543 61.088 85.1503 60.584 85.1503 60.044C85.1503 59.936 85.1503 59.864 85.1863 59.756C85.6903 58.028 86.6623 56.012 87.3463 54.248C87.4183 53.78 87.5623 53.06 87.5623 52.376C87.5623 51.332 87.2743 50.396 86.1943 50.324C84.7183 50.216 84.0703 49.82 84.0703 49.172C84.0703 48.668 86.6623 48.02 89.8303 47.48C91.6303 42.476 93.2863 38.012 94.0063 37.652C94.1143 37.58 94.2583 37.544 94.3663 37.544C94.6903 37.544 95.0143 37.796 95.3023 38.336ZM88.4263 51.296C88.7503 50.468 89.0383 49.64 89.3263 48.812C88.1743 49.028 87.1303 49.244 86.4103 49.424C87.3103 49.748 88.0663 50.432 88.4263 51.296ZM105.399 47.984C105.687 48.272 105.831 48.416 105.831 48.524C105.831 48.74 105.435 48.812 105.219 48.956C105.435 49.676 106.119 50.036 106.839 50.18C107.163 49.604 107.523 48.668 107.523 47.984C107.523 47.768 107.487 47.552 107.415 47.408C107.415 47.372 107.307 47.336 107.199 47.336C106.767 47.336 105.723 47.588 105.399 47.984ZM103.923 48.128C103.923 48.056 103.923 47.984 103.923 47.912C103.923 46.832 105.003 46.292 106.119 46.292C106.839 46.292 107.595 46.544 108.027 46.976C108.531 47.444 108.783 48.092 108.783 48.812C108.783 49.244 108.675 49.712 108.459 50.18C109.395 50 110.799 49.532 111.951 48.56C112.023 48.524 112.059 48.524 112.131 48.524C112.491 48.524 113.067 49.064 113.067 49.424C113.067 49.496 113.031 49.532 112.995 49.568C111.411 50.864 109.719 51.332 108.387 51.332C108.243 51.332 108.063 51.332 107.919 51.332C106.659 53.384 105.255 53.888 104.211 53.888C103.275 53.888 102.663 53.492 102.699 53.42C102.051 52.988 101.799 52.376 101.799 51.764C101.799 50.432 102.951 48.92 103.923 48.128ZM104.607 49.568C103.959 50.252 103.095 51.44 103.023 52.376C102.987 52.592 102.987 52.736 103.023 52.808C103.167 52.88 103.347 52.916 103.527 52.916C104.535 52.916 105.651 51.872 106.371 50.9C105.615 50.576 105.003 50.108 104.607 49.568ZM120.64 48.704C120.964 48.38 121.936 49.424 121.612 49.712C120.1 51.188 115.06 57.524 113.332 56.948C112.972 56.804 112.612 56.516 112.396 56.192C111.532 54.896 114.196 50.828 114.952 49.316C113.8 49.676 112.576 49.82 111.604 49.172C109.876 47.984 110.956 45.392 112.288 44.996C113.08 44.78 114.016 45.572 114.16 46.328C114.268 46.76 114.16 47.444 113.728 48.308C114.16 48.2 115.024 47.804 115.384 47.804C115.96 47.84 116.32 48.164 116.536 48.704C116.896 49.676 113.692 54.212 113.404 55.868C115.132 55.04 118.984 50.36 120.64 48.704ZM111.928 48.488C112.54 47.516 112.828 46.796 112.9 46.292C112.684 46.472 112.432 46.832 112.216 47.3C112.18 47.336 111.82 48.38 111.928 48.488ZM125.541 46.364C125.721 46.364 125.937 46.508 126.117 46.652C126.333 46.4 126.513 46.112 126.693 45.824C127.089 45.248 127.881 46.004 128.097 46.364C128.421 46.868 128.097 48.776 127.413 51.224C128.709 50.432 129.861 49.748 130.689 49.28C131.193 48.992 131.589 48.74 131.769 48.632C131.949 48.524 132.309 48.668 132.633 48.956C132.921 49.244 133.029 49.568 132.849 49.676C132.561 49.856 132.237 50.036 131.805 50.288C130.581 51.008 128.745 52.088 126.765 53.384C125.577 56.948 123.273 62.78 120.789 65.408C119.601 66.632 118.341 66.956 117.081 65.768C111.897 61.268 122.301 54.572 125.577 52.412C126.081 50.864 126.513 49.424 126.801 48.344C125.037 50.684 123.741 51.764 122.841 52.052C121.473 52.484 120.645 51.8 120.357 50.576C119.781 47.912 122.949 45.932 125.541 46.364ZM125.613 47.372C123.633 47.264 121.185 49.136 121.617 51.152C121.761 51.728 125.505 47.516 125.613 47.372ZM119.601 64.436C121.365 62.564 123.273 58.568 124.713 54.752C122.589 56.264 114.165 62.348 117.621 65.336C117.585 65.372 118.233 65.876 119.601 64.436ZM132.872 46.184C132.908 46.112 132.98 46.076 133.088 46.076C133.448 46.076 134.132 46.616 134.132 46.976C134.132 47.012 134.132 47.048 134.096 47.084C133.628 48.092 132.404 50.864 132.404 52.376C132.404 52.592 132.404 52.772 132.44 52.916C132.476 52.916 132.476 52.916 132.512 52.916C134.168 52.916 137.156 49.712 138.092 48.56C138.128 48.524 138.2 48.488 138.236 48.488C138.524 48.488 139.028 49.136 139.028 49.496C139.028 49.568 139.028 49.64 138.992 49.676C137.912 51.008 135.248 53.996 133.232 53.996C133.088 53.996 132.908 53.96 132.764 53.924C132.224 53.78 131.72 53.384 131.468 52.916C131.252 52.592 131.18 52.16 131.18 51.656C131.18 49.856 132.332 47.372 132.872 46.184ZM134.852 45.392C134.816 45.464 134.744 45.5 134.636 45.5C134.276 45.5 133.592 44.96 133.592 44.6C133.592 44.564 133.628 44.528 133.628 44.492L135.104 42.152C135.14 42.08 135.212 42.044 135.32 42.044C135.68 42.044 136.364 42.584 136.364 42.944C136.364 42.98 136.328 43.016 136.328 43.052L134.852 45.392ZM142.948 47.768C142.84 48.056 142.228 47.732 142.012 47.516C140.536 47.948 138.556 49.46 138.556 50.936C138.556 51.08 138.592 51.224 138.628 51.332C140.176 51.188 143.236 47.804 143.236 47.804C143.308 47.696 143.416 47.66 143.524 47.66C143.956 47.66 144.496 48.344 144.496 48.596C144.496 48.632 144.46 48.668 144.46 48.668C144.388 49.172 144.352 49.604 144.352 50C144.352 50.396 144.388 50.72 144.46 50.972C144.496 51.116 144.64 51.188 144.856 51.188C146.08 51.188 149.608 48.956 150.112 48.632C150.148 48.596 150.22 48.596 150.256 48.596C150.652 48.596 151.228 49.172 151.228 49.496C151.228 49.568 151.192 49.604 151.156 49.64C149.608 50.612 147.34 52.232 145.612 52.232C145.432 52.232 145.252 52.232 145.072 52.196C143.992 51.908 143.308 51.188 143.128 50.036C142.012 51.116 140.356 52.448 139.276 52.448C139.204 52.448 139.168 52.448 139.096 52.412C138.34 52.34 137.62 51.692 137.404 50.864C137.332 50.684 137.332 50.468 137.332 50.288C137.332 48.488 139.528 46.868 141.04 46.436C141.22 46.4 141.4 46.364 141.58 46.364C142.048 46.364 142.444 46.544 142.768 46.94C142.984 47.192 143.056 47.48 142.948 47.768ZM158.82 48.704C159.144 48.38 160.116 49.424 159.792 49.712C158.28 51.188 153.24 57.524 151.512 56.948C151.152 56.804 150.792 56.516 150.576 56.192C149.712 54.896 152.376 50.828 153.132 49.316C151.98 49.676 150.756 49.82 149.784 49.172C148.056 47.984 149.136 45.392 150.468 44.996C151.26 44.78 152.196 45.572 152.34 46.328C152.448 46.76 152.34 47.444 151.908 48.308C152.34 48.2 153.204 47.804 153.564 47.804C154.14 47.84 154.5 48.164 154.716 48.704C155.076 49.676 151.872 54.212 151.584 55.868C153.312 55.04 157.164 50.36 158.82 48.704ZM150.108 48.488C150.72 47.516 151.008 46.796 151.08 46.292C150.864 46.472 150.612 46.832 150.396 47.3C150.36 47.336 150 48.38 150.108 48.488ZM159.977 46.184C160.013 46.112 160.085 46.076 160.193 46.076C160.553 46.076 161.237 46.616 161.237 46.976C161.237 47.012 161.237 47.048 161.201 47.084C160.733 48.092 159.509 50.864 159.509 52.376C159.509 52.592 159.509 52.772 159.545 52.916C159.581 52.916 159.581 52.916 159.617 52.916C161.273 52.916 164.261 49.712 165.197 48.56C165.233 48.524 165.305 48.488 165.341 48.488C165.629 48.488 166.133 49.136 166.133 49.496C166.133 49.568 166.133 49.64 166.097 49.676C165.017 51.008 162.353 53.996 160.337 53.996C160.193 53.996 160.013 53.96 159.869 53.924C159.329 53.78 158.825 53.384 158.573 52.916C158.357 52.592 158.285 52.16 158.285 51.656C158.285 49.856 159.437 47.372 159.977 46.184ZM161.957 45.392C161.921 45.464 161.849 45.5 161.741 45.5C161.381 45.5 160.697 44.96 160.697 44.6C160.697 44.564 160.733 44.528 160.733 44.492L162.209 42.152C162.245 42.08 162.317 42.044 162.425 42.044C162.785 42.044 163.469 42.584 163.469 42.944C163.469 42.98 163.433 43.016 163.433 43.052L161.957 45.392ZM166.202 46.256C166.238 46.184 166.31 46.148 166.418 46.148C166.778 46.148 167.462 46.688 167.462 47.012C167.462 47.084 167.462 47.12 167.426 47.12C167.426 47.156 166.49 48.956 165.59 50.72C167.318 49.064 169.37 47.12 170.45 46.832C170.594 46.796 170.738 46.796 170.846 46.796C171.386 46.796 171.89 47.048 172.25 47.48C172.574 47.876 172.682 48.56 172.682 49.28C172.682 50.324 172.502 51.368 172.502 51.764C172.502 51.836 172.502 51.872 172.502 51.908C172.538 51.908 172.538 51.908 172.574 51.908C173.222 51.908 177.218 48.92 177.542 48.632C177.578 48.596 177.65 48.596 177.686 48.596C178.01 48.596 178.514 49.28 178.514 49.676C178.514 49.748 178.478 49.82 178.442 49.856C177.362 50.756 175.021 52.844 173.222 52.844C172.826 52.844 172.466 52.736 172.142 52.484C171.458 51.98 171.314 51.224 171.314 50.396C171.314 49.64 171.458 48.812 171.458 48.092C171.458 48.056 171.458 47.984 171.458 47.912C169.55 48.416 164.618 54.248 163.789 54.248C163.105 54.248 162.745 53.888 162.745 53.312C162.745 52.844 165.734 47.156 166.202 46.256ZM178.61 46.184C178.646 46.112 178.718 46.076 178.826 46.076C179.186 46.076 179.87 46.616 179.87 46.976C179.87 47.012 179.87 47.048 179.834 47.084C179.366 48.092 178.142 50.864 178.142 52.376C178.142 52.592 178.142 52.772 178.178 52.916C178.214 52.916 178.214 52.916 178.25 52.916C179.906 52.916 182.894 49.712 183.83 48.56C183.866 48.524 183.938 48.488 183.974 48.488C184.262 48.488 184.766 49.136 184.766 49.496C184.766 49.568 184.766 49.64 184.73 49.676C183.65 51.008 180.986 53.996 178.97 53.996C178.826 53.996 178.646 53.96 178.502 53.924C177.962 53.78 177.458 53.384 177.206 52.916C176.99 52.592 176.918 52.16 176.918 51.656C176.918 49.856 178.07 47.372 178.61 46.184ZM180.59 45.392C180.554 45.464 180.482 45.5 180.374 45.5C180.014 45.5 179.33 44.96 179.33 44.6C179.33 44.564 179.366 44.528 179.366 44.492L180.842 42.152C180.878 42.08 180.95 42.044 181.058 42.044C181.418 42.044 182.102 42.584 182.102 42.944C182.102 42.98 182.066 43.016 182.066 43.052L180.59 45.392Z" fill="#003D7E"/>
<path opacity="0.8" d="M92.4883 13.4524C92.8698 13.6037 93.1925 13.8457 93.4567 14.1784C93.7312 14.5134 93.9189 14.8945 94.0197 15.3217C94.1309 15.7512 94.1373 16.1845 94.0391 16.6216C93.9151 17.1731 93.6624 17.6411 93.2808 18.0254C92.9016 18.3994 92.4121 18.6556 91.8125 18.7942C91.2256 18.9246 90.5679 18.908 89.8394 18.7443L85.7806 17.832L88.2261 6.95148L92.1288 7.82863C92.8677 7.99471 93.4692 8.26111 93.9335 8.62783C94.4 8.98414 94.7166 9.39968 94.8832 9.87444C95.0498 10.3492 95.0747 10.8468 94.9577 11.3671C94.8127 12.0123 94.5153 12.5085 94.0656 12.8557C93.6286 13.1948 93.1028 13.3937 92.4883 13.4524ZM88.5906 11.9695L90.979 12.5064C91.6451 12.6561 92.1953 12.6157 92.6297 12.3854C93.0642 12.1551 93.3434 11.7641 93.4673 11.2125C93.5913 10.6609 93.5062 10.1881 93.2122 9.79404C92.9181 9.39997 92.4276 9.12574 91.7408 8.97136L89.3836 8.44156L88.5906 11.9695ZM89.9777 17.5454C90.6853 17.7045 91.2743 17.6619 91.7447 17.4178C92.215 17.1737 92.5168 16.755 92.6501 16.1618C92.7858 15.5582 92.6841 15.0379 92.345 14.6009C92.0082 14.1535 91.4912 13.8514 90.7939 13.6947L88.3275 13.1403L87.4644 16.9805L89.9777 17.5454ZM95.7919 15.556C95.9884 14.6818 96.3373 13.9567 96.8385 13.3805C97.342 12.794 97.9417 12.3876 98.6376 12.1614C99.3439 11.9375 100.077 11.9109 100.837 12.0817C101.586 12.2501 102.2 12.5576 102.679 13.0042C103.158 13.4508 103.478 13.949 103.639 14.499L103.99 12.9379L105.426 13.2607L103.503 21.8153L102.067 21.4925L102.425 19.9002C102.031 20.3366 101.516 20.6582 100.88 20.8649C100.256 21.0635 99.574 21.0798 98.8351 20.9137C98.0754 20.743 97.4306 20.4013 96.9008 19.8886C96.371 19.376 96.0052 18.7416 95.8034 17.9857C95.6016 17.2297 95.5978 16.4198 95.7919 15.556ZM103.032 17.1996C103.177 16.5544 103.173 15.9631 103.02 15.4259C102.868 14.8887 102.596 14.445 102.204 14.0946C101.826 13.7362 101.371 13.4974 100.84 13.3781C100.31 13.2588 99.7977 13.2749 99.3044 13.4264C98.8112 13.5779 98.3807 13.8638 98.0129 14.2841C97.6451 14.7043 97.3887 15.2371 97.2437 15.8823C97.0964 16.5379 97.0978 17.1396 97.248 17.6872C97.4006 18.2244 97.6662 18.6722 98.0448 19.0306C98.4258 19.3786 98.8816 19.6123 99.4124 19.7316C99.9432 19.8509 100.455 19.8347 100.948 19.6832C101.454 19.5236 101.891 19.2337 102.259 18.8134C102.629 18.3828 102.887 17.8448 103.032 17.1996ZM112.029 14.581C113.07 14.8149 113.842 15.3217 114.344 16.1016C114.849 16.871 114.968 17.849 114.702 19.0354L113.568 24.0776L112.163 23.7618L113.251 18.9225C113.443 18.0692 113.376 17.3708 113.05 16.8274C112.726 16.2735 112.195 15.9136 111.456 15.7475C110.706 15.5791 110.055 15.6788 109.503 16.0465C108.96 16.4166 108.588 17.0491 108.387 17.9441L107.324 22.6741L105.904 22.3549L107.826 13.8003L109.247 14.1196L108.973 15.3372C109.352 14.9632 109.808 14.7104 110.341 14.5786C110.884 14.4492 111.447 14.45 112.029 14.581ZM116.323 20.1869C116.522 19.3023 116.872 18.572 117.373 17.9959C117.877 17.4093 118.482 17.0041 119.188 16.7802C119.904 16.5587 120.669 16.5391 121.48 16.7216C122.532 16.9578 123.338 17.4069 123.9 18.0689C124.472 18.7332 124.766 19.5427 124.781 20.4972L123.251 20.1533C123.222 19.6002 123.028 19.1248 122.67 18.7271C122.321 18.3318 121.835 18.0639 121.21 17.9236C120.399 17.7411 119.68 17.8747 119.054 18.3245C118.43 18.7638 118.004 19.4933 117.775 20.5132C117.543 21.5435 117.614 22.3958 117.987 23.0701C118.361 23.7443 118.953 24.1727 119.765 24.3551C120.389 24.4955 120.942 24.4667 121.424 24.2689C121.906 24.071 122.286 23.7191 122.563 23.213L124.093 23.5569C123.668 24.3796 123.052 24.9791 122.246 25.3555C121.442 25.7215 120.525 25.7887 119.495 25.5571C118.683 25.3747 118 25.03 117.448 24.5231C116.905 24.0185 116.532 23.3934 116.327 22.6478C116.123 21.9022 116.122 21.0819 116.323 20.1869ZM129.07 27.7094C128.269 27.5293 127.582 27.1834 127.008 26.6718C126.444 26.1625 126.05 25.5328 125.825 24.7825C125.613 24.0242 125.606 23.2027 125.805 22.3181C126.002 21.4439 126.362 20.7159 126.886 20.1341C127.424 19.5442 128.06 19.146 128.795 18.9395C129.532 18.7226 130.307 18.7054 131.119 18.8878C131.931 19.0703 132.623 19.4173 133.197 19.9289C133.773 20.4301 134.174 21.0559 134.399 21.8061C134.634 22.5587 134.652 23.3773 134.453 24.2619C134.255 25.1465 133.881 25.8826 133.334 26.4702C132.799 27.0497 132.158 27.4467 131.41 27.6612C130.662 27.8758 129.882 27.8918 129.07 27.7094ZM129.351 26.4605C129.861 26.5752 130.367 26.5631 130.868 26.4243C131.369 26.2855 131.809 26.0072 132.187 25.5893C132.576 25.1737 132.847 24.6225 133.002 23.9356C133.156 23.2487 133.152 22.6355 132.989 22.096C132.826 21.5565 132.551 21.1231 132.166 20.7959C131.783 20.4583 131.336 20.2322 130.826 20.1176C130.306 20.0006 129.8 20.0127 129.309 20.1538C128.831 20.2869 128.408 20.5635 128.04 20.9838C127.672 21.404 127.411 21.9576 127.257 22.6444C127.1 23.3417 127.093 23.9578 127.235 24.4926C127.388 25.0298 127.65 25.4661 128.023 25.8013C128.399 26.1262 128.841 26.3459 129.351 26.4605ZM148.661 20.5346L148.401 21.6898L145.435 21.0232L143.249 30.7486L141.829 30.4293L144.014 20.7039L141.033 20.0338L141.292 18.8786L148.661 20.5346ZM151.663 32.7873C150.862 32.6072 150.174 32.2613 149.6 31.7497C149.037 31.2404 148.643 30.6107 148.418 29.8604C148.206 29.1021 148.199 28.2806 148.398 27.396C148.594 26.5218 148.955 25.7938 149.479 25.212C150.016 24.6221 150.652 24.2239 151.388 24.0174C152.125 23.8005 152.9 23.7833 153.711 23.9657C154.523 24.1482 155.216 24.4952 155.79 25.0068C156.366 25.508 156.766 26.1337 156.991 26.884C157.227 27.6366 157.245 28.4552 157.046 29.3398C156.847 30.2244 156.474 30.9605 155.927 31.548C155.392 32.1276 154.751 32.5246 154.003 32.7391C153.255 32.9537 152.475 32.9697 151.663 32.7873ZM151.944 31.5384C152.454 31.653 152.959 31.641 153.461 31.5022C153.962 31.3634 154.402 31.085 154.78 30.6671C155.168 30.2516 155.44 29.7004 155.594 29.0135C155.749 28.3266 155.744 27.7134 155.581 27.1739C155.418 26.6343 155.144 26.201 154.758 25.8738C154.375 25.5362 153.929 25.3101 153.419 25.1955C152.898 25.0785 152.393 25.0906 151.902 25.2317C151.424 25.3648 151.001 25.6414 150.633 26.0617C150.265 26.4819 150.004 27.0355 149.85 27.7223C149.693 28.4196 149.686 29.0357 149.828 29.5705C149.98 30.1077 150.243 30.544 150.616 30.8792C150.991 31.2041 151.434 31.4238 151.944 31.5384ZM160.938 27.3939C161.329 26.9679 161.836 26.6556 162.46 26.4569C163.097 26.2502 163.785 26.2299 164.524 26.396C165.284 26.5667 165.93 26.9032 166.462 27.4055C167.004 27.9101 167.378 28.5351 167.582 29.2807C167.788 30.0159 167.793 30.8206 167.597 31.6948C167.403 32.5585 167.053 33.2889 166.547 33.8858C166.041 34.4828 165.434 34.8984 164.725 35.1327C164.027 35.3693 163.298 35.4023 162.538 35.2315C161.81 35.0678 161.201 34.7615 160.711 34.3125C160.234 33.8555 159.905 33.3497 159.724 32.7951L158.457 38.4305L157.037 38.1112L159.872 25.4979L161.292 25.8172L160.938 27.3939ZM166.145 31.3685C166.29 30.7232 166.286 30.132 166.134 29.5948C165.981 29.0576 165.709 28.6138 165.318 28.2635C164.937 27.9155 164.481 27.6818 163.95 27.5625C163.43 27.4456 162.917 27.4669 162.411 27.6265C161.918 27.778 161.481 28.0679 161.1 28.4963C160.732 28.9165 160.477 29.444 160.334 30.0789C160.189 30.7241 160.192 31.3205 160.342 31.8681C160.505 32.4077 160.776 32.8567 161.155 33.2151C161.546 33.5654 162.002 33.7991 162.522 33.916C163.053 34.0353 163.565 34.0192 164.058 33.8677C164.564 33.7081 165.001 33.4182 165.369 32.9979C165.739 32.5673 165.998 32.0241 166.145 31.3685ZM168.936 31.9957C169.132 31.1215 169.481 30.3964 169.982 29.8203C170.486 29.2338 171.086 28.8274 171.782 28.6011C172.488 28.3772 173.221 28.3507 173.981 28.5214C174.73 28.6898 175.344 28.9973 175.823 29.4439C176.302 29.8905 176.622 30.3888 176.783 30.9387L177.134 29.3777L178.57 29.7004L176.647 38.255L175.211 37.9322L175.569 36.34C175.175 36.7764 174.66 37.0979 174.024 37.3046C173.4 37.5033 172.718 37.5196 171.979 37.3535C171.219 37.1827 170.575 36.841 170.045 36.3284C169.515 35.8157 169.149 35.1814 168.947 34.4254C168.746 33.6694 168.742 32.8595 168.936 31.9957ZM176.176 33.6393C176.321 32.9941 176.317 32.4029 176.164 31.8657C176.012 31.3285 175.74 30.8847 175.349 30.5344C174.97 30.1759 174.515 29.9371 173.984 29.8178C173.454 29.6985 172.942 29.7146 172.448 29.8661C171.955 30.0177 171.525 30.3036 171.157 30.7238C170.789 31.1441 170.533 31.6768 170.388 32.322C170.24 32.9777 170.242 33.5793 170.392 34.1269C170.545 34.6641 170.81 35.1119 171.189 35.4703C171.57 35.8184 172.026 36.052 172.556 36.1713C173.087 36.2906 173.599 36.2745 174.092 36.1229C174.598 35.9633 175.035 35.6734 175.403 35.2532C175.773 34.8225 176.031 34.2846 176.176 33.6393ZM176.569 26.7089L172.844 27.7412L173.083 26.6797L176.846 25.4757L176.569 26.7089ZM180.372 37.8624L184.572 38.8062L184.308 39.977L178.486 38.6683L178.749 37.4975L184.301 32.2022L180.18 31.2759L180.44 30.1207L186.2 31.4154L185.94 32.5706L180.372 37.8624ZM189.12 30.6123C188.85 30.5514 188.642 30.4063 188.497 30.1769C188.351 29.9475 188.309 29.6975 188.37 29.4269C188.431 29.1563 188.576 28.9484 188.805 28.8032C189.035 28.6579 189.285 28.6157 189.555 28.6765C189.816 28.735 190.013 28.8778 190.148 29.1049C190.293 29.3343 190.335 29.5843 190.275 29.8549C190.214 30.1255 190.069 30.3334 189.839 30.4786C189.62 30.6262 189.381 30.6707 189.12 30.6123ZM189.495 32.156L187.572 40.7106L186.152 40.3913L188.074 31.8367L189.495 32.156ZM193.693 42.2338C192.891 42.0537 192.204 41.7078 191.63 41.1962C191.067 40.6869 190.672 40.0572 190.448 39.3069C190.235 38.5486 190.229 37.7271 190.427 36.8425C190.624 35.9683 190.984 35.2403 191.509 34.6585C192.046 34.0686 192.682 33.6704 193.417 33.4639C194.155 33.247 194.929 33.2298 195.741 33.4122C196.553 33.5947 197.246 33.9417 197.819 34.4533C198.395 34.9545 198.796 35.5803 199.021 36.3305C199.256 37.0831 199.275 37.9017 199.076 38.7863C198.877 39.6709 198.504 40.407 197.956 40.9946C197.421 41.5741 196.78 41.9711 196.032 42.1856C195.284 42.4002 194.504 42.4162 193.693 42.2338ZM193.973 40.9849C194.483 41.0996 194.989 41.0875 195.49 40.9487C195.992 40.8099 196.431 40.5316 196.809 40.1137C197.198 39.6981 197.47 39.1469 197.624 38.46C197.778 37.7731 197.774 37.1599 197.611 36.6204C197.448 36.0809 197.174 35.6475 196.788 35.3203C196.405 34.9827 195.958 34.7566 195.448 34.642C194.928 34.525 194.422 34.5371 193.931 34.6782C193.453 34.8113 193.03 35.0879 192.662 35.5082C192.295 35.9284 192.034 36.482 191.879 37.1688C191.723 37.8661 191.715 38.4822 191.857 39.017C192.01 39.5542 192.273 39.9905 192.646 40.3257C193.021 40.6506 193.463 40.8703 193.973 40.9849ZM207.566 45.3191C206.848 45.1577 206.231 44.8878 205.714 44.5094C205.211 44.1229 204.848 43.6696 204.626 43.1496C204.406 42.6192 204.358 42.0562 204.481 41.4607L205.995 41.801C205.932 42.3226 206.044 42.8013 206.328 43.237C206.626 43.6647 207.128 43.958 207.836 44.1171C208.512 44.2691 209.081 44.2219 209.541 43.9754C210.013 43.7209 210.309 43.3282 210.428 42.7974C210.522 42.3812 210.484 42.0172 210.313 41.7056C210.143 41.3939 209.901 41.1319 209.588 40.9194C209.275 40.7069 208.844 40.4571 208.297 40.17C207.621 39.8213 207.085 39.5042 206.69 39.2186C206.306 38.9354 206.002 38.5609 205.778 38.0953C205.568 37.6216 205.539 37.0465 205.691 36.37C205.824 35.7768 206.093 35.2852 206.498 34.8951C206.902 34.5051 207.403 34.2459 208.001 34.1178C208.608 33.992 209.266 34.0086 209.974 34.1677C210.994 34.3969 211.769 34.839 212.3 35.494C212.841 36.1513 213.058 36.9108 212.952 37.7725L211.391 37.4216C211.432 36.9936 211.296 36.5803 210.981 36.1815C210.668 35.7724 210.194 35.4964 209.56 35.3537C208.966 35.2204 208.447 35.2678 208.003 35.4958C207.56 35.7134 207.277 36.0979 207.153 36.6495C207.064 37.045 207.101 37.3922 207.263 37.6911C207.436 37.9923 207.669 38.2468 207.961 38.4546C208.266 38.6543 208.696 38.9041 209.252 39.204C209.925 39.5631 210.459 39.8906 210.851 40.1866C211.246 40.4722 211.554 40.853 211.775 41.329C211.999 41.7947 212.033 42.3709 211.879 43.0578C211.759 43.5886 211.507 44.0565 211.12 44.4617C210.734 44.8668 210.232 45.1531 209.615 45.3206C208.998 45.488 208.315 45.4875 207.566 45.3191ZM213.734 46.6891C213.464 46.6283 213.256 46.4831 213.11 46.2537C212.965 46.0243 212.923 45.7743 212.984 45.5037C213.045 45.2331 213.19 45.0252 213.419 44.88C213.649 44.7347 213.899 44.6925 214.169 44.7534C214.429 44.8118 214.627 44.9546 214.762 45.1817C214.907 45.4111 214.949 45.6611 214.888 45.9317C214.827 46.2023 214.682 46.4102 214.453 46.5554C214.234 46.703 213.994 46.7475 213.734 46.6891ZM223.555 46.2562L218.81 45.1896L217.392 47.4128L215.893 47.0759L222.259 37.142L223.898 37.5104L225.384 49.2092L223.886 48.8724L223.555 46.2562ZM223.409 45.0098L222.677 39.0728L219.475 44.1257L223.409 45.0098ZM227.531 49.7899C227.26 49.7291 227.052 49.584 226.907 49.3546C226.762 49.1251 226.719 48.8751 226.78 48.6045C226.841 48.334 226.986 48.1261 227.216 47.9808C227.445 47.8356 227.695 47.7934 227.966 47.8542C228.226 47.9127 228.423 48.0555 228.558 48.2826C228.703 48.512 228.746 48.762 228.685 49.0326C228.624 49.3032 228.479 49.5111 228.249 49.6563C228.03 49.8039 227.791 49.8484 227.531 49.7899ZM81.5783 35.435C81.9806 33.645 82.5854 32.3159 83.3928 31.4478C84.2024 30.5693 85.3358 30.2938 86.7928 30.6213C88.2393 30.9464 89.1406 31.6792 89.4965 32.8197C89.8547 33.9497 89.8327 35.4098 89.4304 37.1998C89.021 39.021 88.4115 40.3709 87.6018 41.2494C86.7922 42.1279 85.664 42.4046 84.2174 42.0794C82.7605 41.752 81.854 41.018 81.4981 39.8775C81.1422 38.737 81.1689 37.2562 81.5783 35.435ZM88.0254 36.884C88.2289 35.9786 88.3384 35.1997 88.3539 34.5472C88.3821 33.8866 88.2521 33.3217 87.964 32.8524C87.6863 32.3855 87.1988 32.0737 86.5015 31.917C85.7939 31.7579 85.2094 31.8288 84.7482 32.1296C84.2974 32.4328 83.9383 32.8878 83.6707 33.4946C83.4159 34.0933 83.1867 34.8453 82.9832 35.7507C82.7727 36.6874 82.6533 37.486 82.6251 38.1465C82.6073 38.8094 82.7373 39.3743 83.015 39.8413C83.3031 40.3105 83.801 40.6247 84.5087 40.7838C85.2059 40.9405 85.78 40.8672 86.2308 40.564C86.692 40.2632 87.0511 39.8082 87.3083 39.1991C87.5759 38.5923 87.8149 37.8207 88.0254 36.884ZM99.3202 34.7817L92.6929 43.9844L91.2567 43.6616L97.9149 34.6134L91.8892 33.2591L92.1629 32.0415L99.5623 33.7045L99.3202 34.7817ZM99.2735 45.5618C99.0029 45.501 98.795 45.3559 98.6498 45.1264C98.5046 44.897 98.4624 44.647 98.5232 44.3764C98.584 44.1058 98.7291 43.8979 98.9586 43.7527C99.188 43.6075 99.438 43.5653 99.7086 43.6261C99.9688 43.6846 100.166 43.8274 100.301 44.0544C100.446 44.2839 100.488 44.5339 100.428 44.8045C100.367 45.075 100.222 45.283 99.9923 45.4282C99.7733 45.5757 99.5337 45.6203 99.2735 45.5618ZM110.11 38.863C110.14 37.6563 109.557 36.9185 108.36 36.6495C107.434 36.4414 106.661 36.6448 106.042 37.26C105.425 37.8648 104.938 38.9853 104.581 40.6215C104.942 40.1342 105.433 39.8016 106.052 39.6237C106.684 39.4378 107.344 39.4221 108.031 39.5764C109.102 39.8174 109.881 40.3422 110.366 41.1509C110.862 41.962 110.977 42.9555 110.713 44.1315C110.554 44.8392 110.271 45.4425 109.863 45.9413C109.467 46.4424 108.95 46.7964 108.313 47.0031C107.686 47.2122 106.978 47.2278 106.187 47.05C105.115 46.8091 104.331 46.3814 103.835 45.7671C103.339 45.1527 103.066 44.3971 103.016 43.5003C102.966 42.6035 103.08 41.5359 103.359 40.2975C104.217 36.4781 105.978 34.8678 108.643 35.4666C109.663 35.6959 110.402 36.1518 110.861 36.8343C111.32 37.5169 111.506 38.2913 111.421 39.1577L110.11 38.863ZM107.464 40.7118C107.016 40.6112 106.574 40.6101 106.136 40.7086C105.701 40.7966 105.316 40.9999 104.982 41.3184C104.661 41.6289 104.441 42.0495 104.322 42.5802C104.144 43.3711 104.228 44.0678 104.573 44.6703C104.921 45.2624 105.522 45.6543 106.375 45.8461C107.104 46.0098 107.732 45.9159 108.259 45.5643C108.799 45.2046 109.156 44.6397 109.329 43.8696C109.511 43.0578 109.446 42.3762 109.132 41.8248C108.821 41.2629 108.265 40.8919 107.464 40.7118ZM121.029 39.6608L114.401 48.8635L112.965 48.5407L119.623 39.4926L113.598 38.1382L113.871 36.9206L121.271 38.5837L121.029 39.6608ZM122.823 47.575C122.794 48.1916 122.93 48.7033 123.233 49.1101C123.545 49.5193 124.024 49.7964 124.669 49.9414C125.533 50.1355 126.244 49.94 126.802 49.3547C127.37 48.7718 127.824 47.6767 128.163 46.0694C127.84 46.4886 127.392 46.7761 126.822 46.9321C126.253 47.0777 125.657 47.0803 125.032 46.9399C124.335 46.7832 123.742 46.5024 123.254 46.0974C122.778 45.6844 122.446 45.167 122.258 44.5453C122.07 43.9235 122.063 43.2224 122.239 42.4418C122.489 41.3283 123.013 40.5058 123.81 39.9744C124.61 39.4325 125.603 39.2949 126.789 39.5616C128.246 39.889 129.159 40.5918 129.529 41.6698C129.91 42.7502 129.889 44.227 129.468 46.1003C129.174 47.4116 128.811 48.467 128.38 49.2666C127.959 50.0685 127.417 50.63 126.755 50.9512C126.102 51.2748 125.292 51.3278 124.325 51.1102C123.263 50.8717 122.5 50.3995 122.035 49.6938C121.571 48.9881 121.396 48.1836 121.512 47.2803L122.823 47.575ZM125.537 45.7905C126.234 45.9473 126.854 45.8626 127.398 45.5365C127.943 45.1999 128.299 44.6622 128.465 43.9233C128.641 43.1428 128.564 42.4641 128.234 41.8871C127.905 41.3101 127.345 40.9328 126.554 40.755C125.825 40.5913 125.191 40.6892 124.651 41.0489C124.121 41.4109 123.772 41.9666 123.604 42.7159C123.433 43.4756 123.51 44.1323 123.833 44.6862C124.157 45.24 124.725 45.6081 125.537 45.7905ZM130.815 52.651C130.544 52.5902 130.336 52.445 130.191 52.2156C130.046 51.9862 130.004 51.7362 130.064 51.4656C130.125 51.195 130.27 50.9871 130.5 50.8419C130.729 50.6966 130.979 50.6544 131.25 50.7153C131.51 50.7737 131.708 50.9165 131.842 51.1436C131.988 51.373 132.03 51.623 131.969 51.8936C131.908 52.1642 131.763 52.3721 131.534 52.5173C131.315 52.6649 131.075 52.7094 130.815 52.651ZM133.648 50.5491L133.89 49.472L141.075 43.1168L142.776 43.4992L141.106 50.9298L142.667 51.2807L142.39 52.5139L140.829 52.1631L140.264 54.6764L138.859 54.3606L139.424 51.8473L133.648 50.5491ZM141.1 44.6805L135.564 49.6843L139.764 50.6281L141.1 44.6805ZM144.539 49.5859C144.941 47.7959 145.546 46.4668 146.353 45.5987C147.163 44.7202 148.296 44.4447 149.753 44.7722C151.2 45.0973 152.101 45.8301 152.457 46.9706C152.815 48.1007 152.793 49.5607 152.391 51.3507C151.982 53.1719 151.372 54.5218 150.562 55.4003C149.753 56.2788 148.625 56.5555 147.178 56.2304C145.721 55.9029 144.815 55.1689 144.459 54.0284C144.103 52.888 144.129 51.4071 144.539 49.5859ZM150.986 51.0349C151.189 50.1295 151.299 49.3506 151.314 48.6981C151.343 48.0375 151.213 47.4726 150.925 47.0033C150.647 46.5364 150.159 46.2246 149.462 46.0679C148.754 45.9088 148.17 45.9797 147.709 46.2806C147.258 46.5838 146.899 47.0387 146.631 47.6455C146.376 48.2442 146.147 48.9962 145.944 49.9017C145.733 50.8383 145.614 51.6369 145.586 52.2974C145.568 52.9603 145.698 53.5253 145.976 53.9922C146.264 54.4615 146.762 54.7756 147.469 54.9347C148.167 55.0914 148.741 55.0182 149.191 54.715C149.653 54.4141 150.012 53.9591 150.269 53.35C150.536 52.7433 150.775 51.9716 150.986 51.0349ZM153.268 54.9588L153.51 53.8817L160.695 47.5265L162.396 47.9089L160.726 55.3396L162.287 55.6904L162.01 56.9237L160.449 56.5728L159.884 59.0861L158.479 58.7703L159.044 56.257L153.268 54.9588ZM160.72 49.0902L155.184 54.094L159.383 55.0378L160.72 49.0902ZM171.711 46.2963L163.532 62.6939L162.127 62.3781L170.29 45.977L171.711 46.2963ZM171.583 55.6643C171.985 53.8743 172.59 52.5452 173.397 51.6771C174.207 50.7986 175.34 50.5231 176.797 50.8506C178.244 51.1757 179.145 51.9085 179.501 53.049C179.859 54.179 179.837 55.6391 179.435 57.4291C179.026 59.2503 178.416 60.6002 177.606 61.4787C176.797 62.3572 175.669 62.6339 174.222 62.3087C172.765 61.9813 171.859 61.2473 171.503 60.1068C171.147 58.9664 171.174 57.4855 171.583 55.6643ZM178.03 57.1133C178.234 56.2079 178.343 55.429 178.359 54.7765C178.387 54.1159 178.257 53.551 177.969 53.0817C177.691 52.6148 177.203 52.303 176.506 52.1463C175.799 51.9872 175.214 52.0581 174.753 52.359C174.302 52.6621 173.943 53.1171 173.675 53.7239C173.421 54.3226 173.191 55.0746 172.988 55.98C172.777 56.9167 172.658 57.7153 172.63 58.3758C172.612 59.0387 172.742 59.6036 173.02 60.0706C173.308 60.5398 173.806 60.854 174.513 61.0131C175.211 61.1698 175.785 61.0965 176.235 60.7933C176.697 60.4925 177.056 60.0375 177.313 59.4284C177.581 58.8217 177.82 58.05 178.03 57.1133ZM181.385 57.8674C181.788 56.0774 182.392 54.7484 183.2 53.8803C184.009 53.0018 185.143 52.7263 186.6 53.0537C188.046 53.3789 188.948 54.1117 189.303 55.2521C189.662 56.3822 189.64 57.8422 189.237 59.6323C188.828 61.4535 188.219 62.8034 187.409 63.6818C186.599 64.5603 185.471 64.837 184.024 64.5119C182.567 64.1844 181.661 63.4505 181.305 62.31C180.949 61.1695 180.976 59.6887 181.385 57.8674ZM187.832 59.3165C188.036 58.4111 188.145 57.6321 188.161 56.9796C188.189 56.3191 188.059 55.7542 187.771 55.2849C187.493 54.818 187.006 54.5061 186.309 54.3494C185.601 54.1904 185.016 54.2613 184.555 54.5621C184.104 54.8653 183.745 55.3203 183.478 55.927C183.223 56.5257 182.994 57.2778 182.79 58.1832C182.58 59.1198 182.46 59.9184 182.432 60.579C182.414 61.2419 182.544 61.8068 182.822 62.2737C183.11 62.743 183.608 63.0572 184.316 63.2162C185.013 63.3729 185.587 63.2997 186.038 62.9965C186.499 62.6956 186.858 62.2407 187.115 61.6316C187.383 61.0248 187.622 60.2531 187.832 59.3165ZM191.188 60.0706C191.59 58.2806 192.195 56.9515 193.002 56.0834C193.812 55.2049 194.945 54.9294 196.402 55.2569C197.849 55.582 198.75 56.3148 199.106 57.4553C199.464 58.5854 199.442 60.0454 199.04 61.8354C198.63 63.6566 198.021 65.0065 197.211 65.885C196.401 66.7635 195.273 67.0402 193.827 66.7151C192.37 66.3876 191.463 65.6536 191.107 64.5131C190.752 63.3727 190.778 61.8918 191.188 60.0706ZM197.635 61.5196C197.838 60.6142 197.948 59.8353 197.963 59.1828C197.991 58.5222 197.861 57.9573 197.573 57.488C197.296 57.0211 196.808 56.7093 196.111 56.5526C195.403 56.3935 194.819 56.4644 194.358 56.7653C193.907 57.0685 193.548 57.5234 193.28 58.1302C193.025 58.7289 192.796 59.4809 192.593 60.3864C192.382 61.323 192.263 62.1216 192.234 62.7821C192.217 63.445 192.347 64.01 192.624 64.4769C192.912 64.9462 193.41 65.2603 194.118 65.4194C194.815 65.5761 195.389 65.5029 195.84 65.1997C196.301 64.8988 196.66 64.4438 196.918 63.8347C197.185 63.228 197.424 62.4563 197.635 61.5196ZM201.566 57.9591L201.857 56.6634L204.792 57.323L202.255 68.6095L200.819 68.2867L203.065 58.2959L201.566 57.9591ZM212.283 64.2215L212.012 65.4235L205.784 64.0236L206.054 62.8216L212.283 64.2215ZM214.588 65.3301C214.991 63.5401 215.595 62.211 216.403 61.3429C217.212 60.4644 218.346 60.1889 219.803 60.5164C221.249 60.8415 222.151 61.5743 222.506 62.7148C222.865 63.8448 222.843 65.3049 222.44 67.0949C222.031 68.9161 221.421 70.266 220.612 71.1445C219.802 72.023 218.674 72.2997 217.227 71.9745C215.77 71.6471 214.864 70.9131 214.508 69.7726C214.152 68.6322 214.179 67.1513 214.588 65.3301ZM221.035 66.7791C221.239 65.8737 221.348 65.0948 221.364 64.4423C221.392 63.7817 221.262 63.2168 220.974 62.7475C220.696 62.2806 220.209 61.9688 219.511 61.8121C218.804 61.653 218.219 61.7239 217.758 62.0248C217.307 62.3279 216.948 62.7829 216.681 63.3897C216.426 63.9884 216.197 64.7404 215.993 65.6458C215.783 66.5825 215.663 67.3811 215.635 68.0416C215.617 68.7045 215.747 69.2694 216.025 69.7364C216.313 70.2056 216.811 70.5198 217.519 70.6789C218.216 70.8356 218.79 70.7623 219.241 70.4591C219.702 70.1583 220.061 69.7033 220.318 69.0942C220.586 68.4875 220.825 67.7158 221.035 66.7791ZM224.391 67.5332C224.793 65.7432 225.398 64.4142 226.205 63.5461C227.015 62.6676 228.148 62.3921 229.605 62.7195C231.052 63.0447 231.953 63.7775 232.309 64.9179C232.667 66.048 232.645 67.508 232.243 69.2981C231.833 71.1193 231.224 72.4691 230.414 73.3476C229.604 74.2261 228.476 74.5028 227.03 74.1777C225.573 73.8502 224.666 73.1163 224.31 71.9758C223.954 70.8353 223.981 69.3545 224.391 67.5332ZM230.838 68.9823C231.041 68.0769 231.151 67.2979 231.166 66.6454C231.194 65.9849 231.064 65.4199 230.776 64.9507C230.499 64.4838 230.011 64.1719 229.314 64.0152C228.606 63.8562 228.022 63.9271 227.56 64.2279C227.11 64.5311 226.751 64.9861 226.483 65.5928C226.228 66.1915 225.999 66.9436 225.795 67.849C225.585 68.7856 225.466 69.5842 225.437 70.2448C225.42 70.9077 225.55 71.4726 225.827 71.9395C226.115 72.4088 226.613 72.723 227.321 72.882C228.018 73.0387 228.592 72.9655 229.043 72.6623C229.504 72.3614 229.863 71.9065 230.121 71.2974C230.388 70.6906 230.627 69.9189 230.838 68.9823Z" fill="black"/>
</svg>
