<svg width="180" height="60" viewBox="0 0 180 60" fill="none" xmlns="http://www.w3.org/2000/svg">
<g clip-path="url(#clip0_2001_21)">
<path d="M97.2632 1.56199L97.2712 10.205C97.259 10.5069 97.3243 10.8068 97.4609 11.0762C97.5974 11.3457 97.8007 11.5757 98.0513 11.7445C98.3019 11.9132 98.5915 12.0149 98.8926 12.04C99.1936 12.0652 99.4961 12.0128 99.7712 11.888C101.908 11.297 109.54 7.85903 110.181 7.54603C111.202 7.02203 111.616 5.266 109.717 4.422C105.709 2.578 99.5582 0.169988 99.5582 0.169988C99.5582 0.169988 97.3912 -0.519013 97.2632 1.56199Z" fill="#50C3C7"/>
<path d="M112.414 1.50997L112.422 10.153C112.41 10.4547 112.476 10.7545 112.612 11.0238C112.749 11.2931 112.952 11.5231 113.203 11.6917C113.453 11.8604 113.743 11.9621 114.044 11.9874C114.345 12.0126 114.647 11.9605 114.922 11.836C117.059 11.245 124.691 7.80698 125.332 7.49398C126.353 6.96998 126.768 5.21395 124.868 4.36995C120.86 2.52495 114.709 0.116963 114.709 0.116963C114.709 0.116963 112.542 -0.571031 112.414 1.50997Z" fill="#50C3C7"/>
<path d="M0 16.58C0.043 15.426 0.660964 15.48 1.42596 15.468C1.46396 15.468 2.97699 15.487 3.14899 15.468C4.69999 15.295 4.75496 13.93 4.76196 12.556C4.77696 10.131 4.76201 7.70601 4.76801 5.28101C4.76801 3.77201 5.112 3.42897 6.591 3.42597C7.06 3.42597 7.52996 3.41697 7.99896 3.42597C8.89296 3.45297 9.29898 4.09999 9.31598 5.00299C9.35398 7.29699 9.35297 11.447 9.35297 13.741C9.35297 14.895 10.194 15.484 11.43 15.456C12.916 15.423 15.089 15.456 16.575 15.469C17.652 15.478 18.04 15.863 18.059 16.921C18.069 17.468 18.071 18.021 18.059 18.564C18.034 19.558 17.597 19.97 16.61 19.982H11.096C10.254 19.982 9.45999 20.134 9.36499 21.865C9.29199 23.189 9.36499 34.03 9.36499 37.365C9.35829 37.9031 9.46247 38.4368 9.67108 38.9329C9.87969 39.429 10.1883 39.8768 10.5775 40.2484C10.9668 40.62 11.4284 40.9074 11.9336 41.0928C12.4388 41.2782 12.9768 41.3576 13.514 41.326C15.048 41.253 16.285 41.077 17.18 39.268C17.2871 39.0149 17.469 38.8005 17.7014 38.6536C17.9337 38.5067 18.2054 38.4342 18.48 38.446C19.08 38.446 20.622 38.479 20.622 38.455C21.66 38.512 21.876 39.287 21.6 40.287C21.2579 41.5253 20.5797 42.6447 19.6406 43.5212C18.7014 44.3977 17.5379 44.9971 16.279 45.253C13.759 45.858 10.518 45.564 9.00397 44.553C6.55297 43.2 4.84596 41.263 4.77496 38.271C4.77496 38.271 4.81396 27.363 4.77496 22.386C4.76096 20.635 4.45302 20.099 3.30402 19.986C3.27002 19.986 1.21402 19.886 1.16602 19.936C0.427016 19.928 0.0109766 19.699 0.000976562 18.792L0 16.58Z" fill="#1A1A1A"/>
<path d="M57.3238 41.14C57.3238 35.64 57.2778 30.135 57.3388 24.633C57.3081 22.634 57.9332 20.68 59.1185 19.07C60.3038 17.4599 61.9839 16.2826 63.9018 15.718C68.0508 14.392 72.0278 14.745 75.5758 17.479C76.5858 18.2299 77.4104 19.2022 77.9863 20.3214C78.5621 21.4405 78.874 22.6766 78.8978 23.935C79.0228 28.286 79.0088 32.644 78.9068 36.996C78.8767 38.9867 78.139 40.9017 76.8258 42.3981C75.5126 43.8945 73.7097 44.8746 71.7398 45.163C69.5531 45.4329 67.3537 45.5862 65.1508 45.622C62.9378 45.801 61.8998 46.835 61.8778 49.06C61.8508 51.902 61.8718 54.937 61.8678 57.78C61.8678 59.28 61.5327 59.601 60.0197 59.604C59.6027 59.604 59.1848 59.61 58.7678 59.604C57.7278 59.581 57.3378 59.221 57.3208 58.197C57.2978 56.789 57.3098 55.381 57.3098 53.973C57.3098 49.6963 57.3098 45.4197 57.3098 41.143L57.3238 41.14ZM74.4038 30.449H74.3938C74.3938 28.573 74.4308 26.696 74.3838 24.82C74.3991 23.9418 74.1701 23.0766 73.7223 22.3211C73.2745 21.5655 72.6255 20.9492 71.8477 20.541C70.8496 19.9735 69.7341 19.6439 68.5878 19.5778C67.4415 19.5117 66.2955 19.711 65.2388 20.16C64.2287 20.4977 63.3553 21.1538 62.7497 22.0299C62.1441 22.9059 61.8389 23.9547 61.8798 25.019C61.8398 28.641 61.8398 32.263 61.8798 35.885C61.8854 36.9038 62.1939 37.8978 62.766 38.7408C63.3381 39.5838 64.148 40.2376 65.0927 40.619C66.4387 41.292 70.3817 41.196 71.7277 40.234C72.1127 40.134 74.5358 38.766 74.4138 35.215C74.3578 33.63 74.4038 32.04 74.4038 30.45V30.449Z" fill="#1A1A1A"/>
<path d="M108.031 30.6321C108.031 32.4321 108.031 34.232 108.031 36.032C108.147 38.2027 107.465 40.3408 106.112 42.0428C104.76 43.7448 102.832 44.8931 100.691 45.271C97.2312 46.1844 93.5541 45.7621 90.3912 44.0881C87.2272 42.3881 86.0782 39.278 86.3592 36.011C86.418 34.0386 87.2186 32.1609 88.6012 30.753C89.9188 29.4699 91.6637 28.7181 93.5013 28.642C95.9463 28.524 98.4012 28.542 100.848 28.511C101.288 28.575 101.738 28.5089 102.141 28.321C102.544 28.133 102.883 27.8313 103.117 27.4531C103.264 27.152 103.355 26.8272 103.387 26.4941C103.85 22.8461 102.172 20.294 98.4352 19.706C97.4767 19.4989 96.4844 19.5044 95.5283 19.7223C94.5722 19.9401 93.6754 20.365 92.9012 20.967C91.9894 21.8719 91.2846 22.9636 90.8352 24.167C90.7561 24.448 90.5744 24.689 90.3261 24.8425C90.0778 24.996 89.781 25.0508 89.4942 24.996C89.4812 24.996 88.1843 25.008 87.7673 24.996C86.5963 24.962 86.3453 24.137 86.5503 22.988C87.3933 18.268 91.3202 15.597 95.6302 15.126C98.1209 14.7857 100.656 15.2134 102.897 16.352C104.427 17.1022 105.717 18.2659 106.619 19.7113C107.522 21.1567 108.002 22.8259 108.004 24.53C108.095 26.56 108.02 28.5971 108.02 30.6301L108.031 30.6321ZM97.8083 33.162V33.167C96.6873 33.167 95.5652 33.138 94.4452 33.175C93.9373 33.1404 93.428 33.2177 92.9532 33.4014C92.4784 33.585 92.0497 33.8706 91.6972 34.238C91.0613 35.1292 90.7943 36.2316 90.9519 37.3151C91.1096 38.3985 91.6797 39.3791 92.5433 40.052C94.2982 41.0589 96.3495 41.4214 98.3432 41.077C101.323 40.738 103.193 39.305 103.453 36.392C103.631 34.4 102.676 33.1611 100.699 33.1611L97.8083 33.162Z" fill="#1A1A1A"/>
<path d="M48.2751 36.6331C48.1905 38.668 47.4319 40.6172 46.1186 42.1739C44.8053 43.7307 43.0118 44.8068 41.0201 45.233C39.3694 45.7282 37.6333 45.8725 35.9234 45.6566C34.2136 45.4406 32.5679 44.8692 31.0921 43.9791C29.7549 43.2005 28.6455 42.0845 27.8748 40.7427C27.1041 39.401 26.699 37.8804 26.7002 36.3331C26.5752 32.3731 26.6172 28.405 26.6822 24.442C26.7239 22.3256 27.4812 20.2857 28.8309 18.655C30.1805 17.0242 32.0429 15.8987 34.1142 15.462C35.8908 14.9286 37.7665 14.8124 39.5953 15.1226C41.4241 15.4327 43.1567 16.1608 44.6581 17.2501C47.3061 19.1861 48.3261 21.9501 48.3821 25.1331C48.4171 26.8591 48.3651 35.0921 48.2751 36.6331ZM43.7871 25.421C43.853 24.6139 43.7282 23.8025 43.4228 23.0525C43.1174 22.3024 42.6401 21.6346 42.0291 21.103C41.2492 20.4954 40.3526 20.0546 39.395 19.8081C38.4375 19.5616 37.4396 19.5146 36.4632 19.67C35.0277 19.7225 33.6712 20.3409 32.6902 21.3901C31.7091 22.4394 31.1831 23.8342 31.2271 25.27C31.1831 28.683 31.1931 32.096 31.2271 35.509C31.187 36.2389 31.307 36.9688 31.5785 37.6475C31.8501 38.3261 32.2667 38.9372 32.7992 39.438C33.7072 40.2249 34.7989 40.7703 35.9734 41.0239C37.1478 41.2775 38.3673 41.2311 39.5191 40.889C40.7067 40.671 41.7807 40.0447 42.5553 39.1185C43.33 38.1923 43.7565 37.0244 43.7611 35.817C43.7611 34.044 43.7881 27.115 43.7921 25.421H43.7871Z" fill="#1A1A1A"/>
<path d="M158.267 30.376C158.267 28.551 158.253 26.725 158.267 24.9C158.318 19.319 162.227 15.839 167.179 15.159C169.949 14.699 172.792 15.1971 175.241 16.571C176.653 17.3279 177.833 18.4525 178.657 19.8257C179.482 21.1988 179.919 22.7694 179.924 24.371C180.046 28.434 180.008 32.506 179.885 36.571C179.808 38.6338 179.043 40.6114 177.711 42.1883C176.379 43.7652 174.557 44.8506 172.536 45.271C170.905 45.7407 169.195 45.8716 167.511 45.6558C165.828 45.44 164.206 44.882 162.746 44.016C161.392 43.2185 160.269 42.0822 159.487 40.719C158.706 39.3557 158.292 37.8125 158.288 36.241C158.196 34.289 158.271 32.33 158.271 30.374L158.267 30.376ZM175.367 30.502H175.396C175.396 28.808 175.396 27.115 175.396 25.422C175.462 24.615 175.337 23.8036 175.032 23.0536C174.727 22.3035 174.25 21.6357 173.639 21.104C172.859 20.4955 171.961 20.0542 171.003 19.8075C170.044 19.5608 169.045 19.514 168.068 19.67C166.632 19.7225 165.276 20.3408 164.295 21.39C163.313 22.4392 162.787 23.8341 162.831 25.27C162.787 28.682 162.797 32.096 162.831 35.509C162.791 36.2388 162.911 36.9686 163.182 37.6473C163.453 38.3259 163.87 38.9371 164.402 39.438C165.31 40.225 166.402 40.7704 167.576 41.024C168.751 41.2776 169.97 41.2312 171.122 40.889C172.31 40.6708 173.384 40.0446 174.159 39.1185C174.934 38.1923 175.361 37.0246 175.366 35.817C175.36 34.045 175.363 32.274 175.363 30.502H175.367Z" fill="#1A1A1A"/>
<path d="M125.166 15.47C127.825 15.47 130.484 15.463 133.143 15.47C134.937 15.475 135.577 16.27 135.762 18.032C136.031 20.59 134.936 21.765 133.789 23.224C131.756 25.673 122.534 36.609 122.052 37.465C121.044 39.254 121.645 40.893 124.042 40.788C127.248 40.826 134.209 40.758 134.466 40.788C135.366 40.894 135.697 41.388 135.723 42.2819C135.741 42.882 135.747 43.482 135.718 44.082C135.732 44.2531 135.708 44.425 135.648 44.5859C135.588 44.7468 135.494 44.8927 135.372 45.0133C135.25 45.134 135.103 45.2266 134.941 45.2846C134.78 45.3425 134.608 45.3645 134.437 45.349C133.604 45.38 132.769 45.361 131.937 45.361C127.453 45.361 122.969 45.361 118.486 45.361C116.386 45.361 115.786 44.643 115.646 42.55C115.512 40.0013 116.345 37.4961 117.98 35.536C120.136 32.816 127.127 24.462 127.709 23.727C128.291 22.992 129.083 22.006 128.659 21.068C128.235 20.13 127.569 19.993 126.608 19.988C123.871 19.975 117.355 19.994 117.355 19.994C116.387 19.971 115.718 19.74 115.649 18.794C115.628 18.169 115.632 17.412 115.649 16.788C115.672 15.866 116.085 15.479 117.113 15.474C119.798 15.464 122.481 15.471 125.166 15.47Z" fill="#1A1A1A"/>
<path d="M149.056 30.427C149.056 34.779 149.056 39.419 149.056 43.772C149.012 44.907 148.674 45.342 147.539 45.363C147.174 45.363 146.472 45.363 146.107 45.363C144.92 45.345 144.507 44.951 144.502 43.763C144.49 41.313 144.502 38.863 144.502 36.413C144.502 30.054 144.502 23.103 144.502 16.743C144.502 15.728 145.002 15.476 146.093 15.476C146.562 15.476 147.323 15.466 147.793 15.485C147.963 15.4651 148.136 15.4842 148.297 15.5409C148.459 15.5975 148.606 15.6903 148.726 15.8122C148.847 15.934 148.938 16.0817 148.993 16.244C149.048 16.4064 149.065 16.579 149.043 16.749C149.069 18.573 149.06 20.397 149.061 22.221C149.06 24.9543 149.058 27.6896 149.056 30.427Z" fill="#1A1A1A"/>
<path d="M16.1471 0.165007H20.1231C21.0357 0.111614 21.933 0.417401 22.6231 1.017C22.8234 1.21413 22.9815 1.44991 23.0879 1.70999C23.1943 1.97007 23.2467 2.24903 23.2421 2.53V2.55704C23.2471 3.06223 23.0912 3.55588 22.7969 3.96652C22.5026 4.37716 22.0851 4.68348 21.6051 4.84103C22.7611 5.14103 23.7781 5.80402 23.7781 7.14102V7.16904C23.7781 8.77804 22.4021 9.79703 20.3251 9.79703H16.1431L16.1471 0.165007ZM20.0401 4.608C21.4841 4.608 22.5161 3.90798 22.5161 2.62698V2.59903C22.5161 1.54003 21.6501 0.824004 20.1091 0.824004H16.8621V4.60702L20.0401 4.608ZM20.3561 9.134C22.0071 9.134 23.0561 8.37702 23.0561 7.16702V7.13901C23.0561 5.95601 22.0241 5.26803 20.1261 5.26803H16.8661V9.134H20.3561Z" fill="#1A1A1A"/>
<path d="M31.6652 0.0959778H32.3531L36.8372 9.79596H36.0532L34.8292 7.09601H29.1481L27.9232 9.79596H27.1802L31.6652 0.0959778ZM34.5261 6.45099L31.9952 0.879974L29.4501 6.45099H34.5261Z" fill="#1A1A1A"/>
<path d="M40.8003 0.165009H41.4742L48.1183 8.54202V0.165009H48.8063V9.79404H48.2712L41.4893 1.23801V9.79404H40.8013L40.8003 0.165009Z" fill="#1A1A1A"/>
<path d="M53.1679 5.00802V4.98098C53.1492 4.3358 53.2598 3.69339 53.4931 3.09157C53.7264 2.48976 54.0777 1.9407 54.5264 1.47667C54.975 1.01265 55.5119 0.643035 56.1055 0.389608C56.6992 0.136181 57.3375 0.00406102 57.9829 0.000997361C58.679 -0.0123704 59.3704 0.117524 60.0141 0.38262C60.6578 0.647715 61.2401 1.04233 61.7249 1.54198L61.216 2.06499C60.802 1.61761 60.2999 1.26076 59.7412 1.0169C59.1826 0.773031 58.5795 0.647434 57.9699 0.648001C57.4181 0.655332 56.8733 0.773525 56.3681 0.995596C55.8628 1.21767 55.4074 1.53909 55.0288 1.94069C54.6503 2.3423 54.3563 2.81591 54.1644 3.33339C53.9726 3.85088 53.8867 4.40163 53.9119 4.95296V4.98098C53.8877 5.53459 53.9745 6.08748 54.1672 6.60702C54.36 7.12655 54.6549 7.60225 55.0344 8.00606C55.4139 8.40988 55.8703 8.73364 56.3769 8.95827C56.8835 9.1829 57.4299 9.30384 57.984 9.31399C58.6114 9.31418 59.2317 9.18051 59.8034 8.92183C60.375 8.66316 60.8849 8.28545 61.299 7.81399L61.7799 8.282C61.2979 8.8168 60.7077 9.24295 60.0484 9.53225C59.3891 9.82155 58.6759 9.96736 57.9559 9.95998C57.3131 9.96064 56.6766 9.83179 56.0846 9.58108C55.4926 9.33036 54.9573 8.96293 54.5104 8.50075C54.0635 8.03857 53.7143 7.49111 53.4837 6.89101C53.253 6.29092 53.1456 5.65052 53.1679 5.00802Z" fill="#1A1A1A"/>
<path d="M64.9721 5.00802V4.98098C64.9517 4.33352 65.0614 3.68857 65.2947 3.08425C65.528 2.47992 65.8801 1.92852 66.3302 1.46267C66.7803 0.996814 67.3192 0.62598 67.9152 0.372091C68.5111 0.118201 69.1519 -0.0135792 69.7997 -0.0154522C70.4475 -0.0173251 71.0891 0.110726 71.6865 0.361165C72.2839 0.611605 72.825 0.979344 73.2778 1.44259C73.7306 1.90583 74.0858 2.45516 74.3226 3.05813C74.5593 3.66109 74.6728 4.3054 74.6561 4.95296C74.6701 4.96696 74.6701 4.96698 74.6561 4.98098C74.6765 5.62844 74.5667 6.2734 74.3334 6.87771C74.1001 7.48201 73.7479 8.03341 73.2977 8.49923C72.8476 8.96504 72.3086 9.33579 71.7126 9.58962C71.1166 9.84345 70.4758 9.9752 69.828 9.97701C69.1802 9.97882 68.5387 9.85068 67.9413 9.60018C67.3439 9.34967 66.8028 8.98187 66.3501 8.51857C65.8973 8.05528 65.5421 7.50591 65.3054 6.90291C65.0688 6.29992 64.9554 5.65558 64.9721 5.00802ZM73.9131 5.00802V4.98098C73.9353 4.42447 73.8458 3.86917 73.6497 3.34786C73.4537 2.82655 73.1551 2.34983 72.7717 1.94588C72.3883 1.54194 71.9277 1.21898 71.4173 0.996053C70.9069 0.773127 70.357 0.654774 69.8001 0.648C69.2461 0.652153 68.6985 0.767973 68.1903 0.988576C67.682 1.20918 67.2234 1.53002 66.842 1.93191C66.4606 2.33379 66.1641 2.80845 65.9703 3.32753C65.7765 3.84662 65.6894 4.39944 65.7141 4.95296V4.98098C65.6919 5.53749 65.7814 6.09279 65.9775 6.61409C66.1736 7.1354 66.4721 7.61213 66.8555 8.01607C67.239 8.42002 67.6995 8.74304 68.2099 8.96596C68.7203 9.18889 69.2702 9.30721 69.8271 9.31398C70.3813 9.30984 70.9289 9.19395 71.4372 8.97329C71.9456 8.75262 72.4042 8.43173 72.7857 8.02974C73.1671 7.62775 73.4635 7.15295 73.6572 6.63375C73.851 6.11455 73.938 5.56162 73.9131 5.00802Z" fill="#1A1A1A"/>
<path d="M148.953 9.56198C148.953 8.30498 147.934 7.28598 146.677 7.28598C145.42 7.28598 144.401 8.30498 144.401 9.56198V9.91198C144.401 11.169 145.42 12.188 146.677 12.188C147.934 12.188 148.953 11.169 148.953 9.91198V9.56198Z" fill="#1A1A1A"/>
</g>
<defs>
<clipPath id="clip0_2001_21">
<rect width="180" height="59.607" fill="white"/>
</clipPath>
</defs>
</svg>
