<svg width="29" height="13" viewBox="0 0 29 13" fill="none" xmlns="http://www.w3.org/2000/svg">
<path d="M0 1.55402L0.00799561 10.1971C-0.00415618 10.4989 0.06114 10.7988 0.197693 11.0683C0.334246 11.3377 0.537484 11.5678 0.788086 11.7365C1.03869 11.9052 1.32834 12.007 1.62939 12.0321C1.93045 12.0572 2.2329 12.0049 2.508 11.88C4.645 11.289 12.277 7.85106 12.918 7.53806C13.939 7.01406 14.353 5.25804 12.454 4.41404C8.44598 2.57004 2.29498 0.162023 2.29498 0.162023C2.29498 0.162023 0.128 -0.526978 0 1.55402Z" fill="#50C3C7"/>
<path d="M15.1509 1.502L15.1589 10.145C15.147 10.4468 15.2125 10.7465 15.3491 11.0159C15.4858 11.2852 15.689 11.5151 15.9395 11.6838C16.19 11.8524 16.4795 11.9542 16.7805 11.9794C17.0814 12.0047 17.3838 11.9525 17.6589 11.828C19.7959 11.237 27.4279 7.79901 28.0689 7.48601C29.0899 6.96201 29.5049 5.20599 27.6049 4.36199C23.5969 2.51699 17.4459 0.108998 17.4459 0.108998C17.4459 0.108998 15.2789 -0.578997 15.1509 1.502Z" fill="#50C3C7"/>
</svg>
